<?xml version="1.0" encoding="utf-8"?>
<!-- Generator: Adobe Illustrator 15.0.2, SVG Export Plug-In  -->
<!DOCTYPE svg PUBLIC "-//W3C//DTD SVG 1.1//EN" "http://www.w3.org/Graphics/SVG/1.1/DTD/svg11.dtd" [
	<!ENTITY ns_flows "http://ns.adobe.com/Flows/1.0/">
]>
<svg version="1.1"
	 xmlns="http://www.w3.org/2000/svg" xmlns:xlink="http://www.w3.org/1999/xlink" xmlns:a="http://ns.adobe.com/AdobeSVGViewerExtensions/3.0/"
	 x="0px" y="0px" width="80px" height="86px" viewBox="-6.362 6.828 80 86" enable-background="new -6.362 6.828 80 86"
	 xml:space="preserve">
<defs>
</defs>
<g>
	<path fill="#EFB11E" d="M3.352,16.176h59.164l6.246,16.454h-3.757c-2.031-2.336-4.3-4.443-6.805-6.323
		c-2.506-1.879-4.977-3.394-7.415-4.545c-2.438-1.151-4.74-1.913-6.906-2.285c-1.964-0.338-3.979-0.508-6.043-0.508
		c-3.42,0-5.849,0.33-7.288,0.99c-1.439,0.66-2.345,1.828-2.717,3.504c-0.373,1.676-0.559,4.512-0.559,8.506v17.47h9.243
		c4.672,0,8.202-1.041,10.588-3.123c2.387-2.083,3.631-5.273,3.732-9.573h3.657v27.169h-3.657c-0.305-3.419-0.914-5.933-1.828-7.541
		c-0.914-1.608-2.361-2.692-4.342-3.25s-4.833-0.838-8.557-0.838h-8.836v24.833c0,2.945,0.82,5.002,2.463,6.17
		c1.642,1.168,4.528,1.752,8.659,1.752h1.32v2.793H3.656V85.04c3.318-0.102,5.721-0.44,7.211-1.016
		c1.489-0.576,2.48-1.549,2.971-2.92s0.737-3.461,0.737-6.271V30.447v-2.438c0-3.25-0.602-5.586-1.803-7.008
		c-1.202-1.422-3.902-2.133-8.1-2.133c-0.237,0-0.458,0.008-0.661,0.025s-0.423,0.042-0.66,0.076V16.176z M19.45,78.488V30.65
		c0-3.487-0.11-6.009-0.33-7.567c-0.221-1.557-0.838-2.691-1.854-3.402s-2.709-0.948-5.079-0.711
		c1.794,0.644,2.912,1.558,3.352,2.742c0.439,1.186,0.66,3.471,0.66,6.856v47.534c0,2.1-0.076,3.656-0.229,4.672
		s-0.466,1.82-0.939,2.412c-0.475,0.593-1.287,1.211-2.438,1.854c2.505,0.034,4.274-0.448,5.307-1.447
		C18.934,82.594,19.45,80.893,19.45,78.488z M50.428,55.788V45.072c-0.711,1.389-1.583,2.455-2.615,3.2
		c-1.033,0.745-2.582,1.49-4.646,2.234c2.031,0.508,3.613,1.16,4.748,1.955C49.048,53.257,49.887,54.366,50.428,55.788z
		 M62.515,27.399l-4.977-8.43h-9.497c2.099,0.677,3.961,1.431,5.586,2.26c1.625,0.83,3.021,1.668,4.189,2.514
		C58.985,24.59,60.551,25.809,62.515,27.399z"/>
</g>
</svg>
